<svg width="20" height="20" viewBox="0 0 20 20" fill="none" xmlns="http://www.w3.org/2000/svg">
<g clip-path="url(#clip0_13_71144)">
<path d="M6.18668 17.5C6.50973 18.2428 7.0427 18.8751 7.72014 19.3193C8.39757 19.7634 9.18997 20 10 20C10.81 20 11.6024 19.7634 12.2799 19.3193C12.9573 18.8751 13.4903 18.2428 13.8133 17.5H6.18668Z" fill="white"/>
<path d="M18.6598 10.4573L17.2132 5.68809C16.7499 4.02005 15.7427 2.55457 14.3514 1.52434C12.9601 0.494116 11.2646 -0.0418102 9.53393 0.00165678C7.8033 0.0451238 6.13678 0.665492 4.79898 1.76426C3.46118 2.86303 2.52879 4.37723 2.14984 6.06643L1.02651 10.6806C0.877201 11.2937 0.869112 11.9328 1.00285 12.5495C1.13659 13.1662 1.40866 13.7445 1.79853 14.2407C2.18839 14.7369 2.68588 15.138 3.25344 15.4139C3.82099 15.6897 4.44379 15.8331 5.07484 15.8331H14.6723C15.323 15.8331 15.9645 15.6808 16.5457 15.3883C17.1268 15.0958 17.6314 14.6713 18.019 14.1487C18.4066 13.6262 18.6665 13.0201 18.7778 12.3791C18.889 11.738 18.8486 11.0799 18.6598 10.4573Z" fill="white"/>
</g>
<circle cx="15" cy="2" r="2" fill="#FA1768"/>
<defs>
<clipPath id="clip0_13_71144">
<rect width="20" height="20" fill="white"/>
</clipPath>
</defs>
</svg>
