<svg width="24" height="24" viewBox="0 0 24 24" fill="none" xmlns="http://www.w3.org/2000/svg">
<g clip-path="url(#clip0_12_71071)">
<path d="M22 18H2C1.46957 18 0.960859 17.7893 0.585786 17.4142C0.210714 17.0391 0 16.5304 0 16V15C0 13.9391 0.421427 12.9217 1.17157 12.1716C1.92172 11.4214 2.93913 11 4 11H20C21.0609 11 22.0783 11.4214 22.8284 12.1716C23.5786 12.9217 24 13.9391 24 15V16C24 16.5304 23.7893 17.0391 23.4142 17.4142C23.0391 17.7893 22.5304 18 22 18ZM3.058 20C2.471 23.954 8.53 23.952 7.942 20H3.058ZM16.058 20C15.471 23.954 21.53 23.952 20.942 20H16.058ZM19.825 9L16.438 4.141C15.9772 3.47992 15.3635 2.93999 14.6491 2.56721C13.9347 2.19443 13.1408 1.99983 12.335 2H11.5C10.837 2 10.2011 2.26339 9.73223 2.73223C9.26339 3.20107 9 3.83696 9 4.5V9H19.825Z" fill="#DDECFF"/>
</g>
<defs>
<clipPath id="clip0_12_71071">
<rect width="24" height="24" fill="white"/>
</clipPath>
</defs>
</svg>
