<svg width="24" height="24" viewBox="0 0 24 24" fill="none" xmlns="http://www.w3.org/2000/svg">
<g clip-path="url(#clip0_41_5150)">
<path d="M16.0002 19C16.0002 20.654 14.6543 22 13.0002 22V23C13.0002 23.552 12.5532 24 12.0002 24C11.4473 24 11.0002 23.552 11.0002 23V22H10.7323C9.66525 22 8.66925 21.426 8.13425 20.501C7.85725 20.023 8.02125 19.412 8.49825 19.135C8.97725 18.857 9.58825 19.022 9.86425 19.5C10.0433 19.808 10.3752 20 10.7312 20H12.9992C13.5512 20 13.9992 19.552 13.9992 19C13.9992 18.622 13.7282 18.302 13.3552 18.24L10.3142 17.733C8.97225 17.51 7.99925 16.36 7.99925 15C7.99925 13.346 9.34525 12 10.9992 12V11C10.9992 10.448 11.4462 9.99998 11.9992 9.99998C12.5522 9.99998 12.9992 10.448 12.9992 11V12H13.2673C14.3343 12 15.3302 12.574 15.8652 13.499C16.1423 13.977 15.9783 14.588 15.5013 14.865C15.0213 15.141 14.4102 14.977 14.1353 14.5C13.9563 14.192 13.6242 14 13.2682 14H11.0002C10.4482 14 10.0002 14.448 10.0002 15C10.0002 15.378 10.2712 15.698 10.6442 15.76L13.6853 16.267C15.0273 16.49 16.0002 17.64 16.0002 19ZM23.7073 10.879L21.4142 8.58598C20.6353 7.80598 19.3652 7.80598 18.5863 8.58598L16.2932 10.879C15.9022 11.27 15.9022 11.902 16.2932 12.293C16.6842 12.684 17.3162 12.684 17.7073 12.293L19.0002 11V23C19.0002 23.552 19.4473 24 20.0002 24C20.5532 24 21.0002 23.552 21.0002 23V11L22.2932 12.293C22.4882 12.488 22.7442 12.586 23.0002 12.586C23.2563 12.586 23.5123 12.488 23.7073 12.293C24.0983 11.902 24.0983 11.27 23.7073 10.879ZM9.70725 4.29298L11.0002 2.99998V6.99998C11.0002 7.55198 11.4473 7.99998 12.0002 7.99998C12.5532 7.99998 13.0002 7.55198 13.0002 6.99998V2.99998L14.2933 4.29298C14.4882 4.48798 14.7443 4.58598 15.0002 4.58598C15.2562 4.58598 15.5122 4.48798 15.7072 4.29298C16.0982 3.90198 16.0982 3.26998 15.7072 2.87898L13.4142 0.585977C12.6352 -0.194023 11.3653 -0.194023 10.5863 0.585977L8.29325 2.87898C7.90225 3.26998 7.90225 3.90198 8.29325 4.29298C8.68425 4.68398 9.31625 4.68398 9.70725 4.29298ZM7.70725 7.87898L5.41425 5.58598C4.63525 4.80598 3.36525 4.80598 2.58625 5.58598L0.29325 7.87898C-0.09775 8.26998 -0.09775 8.90198 0.29325 9.29298C0.68425 9.68398 1.31625 9.68398 1.70725 9.29298L3.00025 7.99998V23C3.00025 23.552 3.44725 24 4.00025 24C4.55325 24 5.00025 23.552 5.00025 23V7.99998L6.29325 9.29298C6.48825 9.48798 6.74425 9.58598 7.00025 9.58598C7.25625 9.58598 7.51225 9.48798 7.70725 9.29298C8.09825 8.90198 8.09825 8.26998 7.70725 7.87898Z" fill="#0052B4"/>
</g>
<defs>
<clipPath id="clip0_41_5150">
<rect width="24" height="24" fill="white"/>
</clipPath>
</defs>
</svg>
