<svg width="24" height="24" viewBox="0 0 24 24" fill="none" xmlns="http://www.w3.org/2000/svg">
<path d="M12.8351 0.0276569C9.36107 -0.207343 5.96007 1.06366 3.50707 3.51966C1.05407 5.97566 -0.211929 9.37666 0.0290713 12.8527C0.469071 19.2067 6.08107 23.9987 13.0831 23.9987H19.0001C21.7571 23.9987 24.0001 21.7557 24.0001 18.9987V12.3387C23.9991 5.86066 19.0951 0.452657 12.8351 0.0276569ZM6.99907 13.4987C6.17107 13.4987 5.49907 12.8267 5.49907 11.9987C5.49907 11.1707 6.17107 10.4987 6.99907 10.4987C7.82707 10.4987 8.49907 11.1707 8.49907 11.9987C8.49907 12.8267 7.82707 13.4987 6.99907 13.4987ZM11.9991 13.4987C11.1711 13.4987 10.4991 12.8267 10.4991 11.9987C10.4991 11.1707 11.1711 10.4987 11.9991 10.4987C12.8271 10.4987 13.4991 11.1707 13.4991 11.9987C13.4991 12.8267 12.8271 13.4987 11.9991 13.4987ZM16.9991 13.4987C16.1711 13.4987 15.4991 12.8267 15.4991 11.9987C15.4991 11.1707 16.1711 10.4987 16.9991 10.4987C17.8271 10.4987 18.4991 11.1707 18.4991 11.9987C18.4991 12.8267 17.8271 13.4987 16.9991 13.4987Z" fill="#353232"/>
</svg>
