<svg width="57" height="57" viewBox="0 0 57 57" fill="none" xmlns="http://www.w3.org/2000/svg">
<g clip-path="url(#clip0_43_5668)">
<path d="M34.4374 16.625C29.8537 16.625 26.1249 12.8962 26.1249 8.3125C26.1249 3.72875 29.8537 0 34.4374 0C39.0211 0 42.7499 3.72875 42.7499 8.3125C42.7499 12.8962 39.0211 16.625 34.4374 16.625ZM13.0624 16.625C8.47865 16.625 4.7499 12.8962 4.7499 8.3125C4.7499 3.72875 8.47865 0 13.0624 0C17.6462 0 21.3749 3.72875 21.3749 8.3125C21.3749 12.8962 17.6462 16.625 13.0624 16.625ZM42.7499 28.5C34.8792 28.5 28.4999 34.8792 28.4999 42.75C28.4999 50.6208 34.8792 57 42.7499 57C50.6207 57 56.9999 50.6208 56.9999 42.75C56.9999 34.8792 50.6207 28.5 42.7499 28.5ZM51.497 42.066L45.0774 48.2743C44.0039 49.3335 42.5789 49.8679 41.1515 49.8679C39.7241 49.8679 38.2944 49.3335 37.2019 48.2671L33.9862 45.1036C33.048 44.1845 33.0361 42.6811 33.9529 41.7454C34.8696 40.8073 36.373 40.793 37.3111 41.7121L40.5269 44.8732C40.8689 45.2105 41.4294 45.2034 41.7667 44.8685L48.21 38.6365C49.1529 37.7316 50.6586 37.7578 51.5683 38.7054C52.4755 39.6506 52.4446 41.154 51.4994 42.0636L51.497 42.066ZM10.6874 27.3125C10.6874 24.1656 11.806 21.2753 13.6657 19.019C13.4448 19.0071 13.2215 19 12.9983 19C6.32928 19 0.748025 23.9946 0.0141501 30.6138C-0.0594749 31.2859 0.15665 31.9556 0.605525 32.4591C1.0544 32.9626 1.7004 33.25 2.3749 33.25H12.1172C11.2028 31.4688 10.6874 29.45 10.6874 27.3125ZM23.7499 35.625C24.2392 35.625 24.7165 35.5822 25.182 35.5015C26.607 32.0554 29.0129 29.1199 32.0553 27.0441C31.9128 22.5863 28.241 19.0024 23.7475 19.0024C19.1638 19.0024 15.435 22.7311 15.435 27.3149C15.435 31.8986 19.1638 35.6274 23.7475 35.6274L23.7499 35.625ZM23.7499 42.75C23.7499 41.1564 23.947 39.6079 24.3175 38.1283C23.7214 38.0451 23.1158 38 22.4983 38C15.8293 38 10.248 42.9946 9.51415 49.6137C9.44053 50.2859 9.65665 50.9556 10.1055 51.4591C10.5544 51.9626 11.2004 52.25 11.8749 52.25H26.2911C24.6738 49.4546 23.7475 46.2104 23.7475 42.75H23.7499Z" fill="white"/>
</g>
<defs>
<clipPath id="clip0_43_5668">
<rect width="57" height="57" fill="white"/>
</clipPath>
</defs>
</svg>
