<svg width="20" height="24" viewBox="0 0 20 24" fill="none" xmlns="http://www.w3.org/2000/svg">
<path d="M14.034 18.1014C15.874 19.0934 17.319 20.7314 17.947 22.7534C18.041 23.0564 17.986 23.3874 17.797 23.6434C17.608 23.8994 17.31 24.0504 16.992 24.0504H2.993C2.675 24.0504 2.376 23.8994 2.188 23.6434C2 23.3874 1.944 23.0574 2.038 22.7534C2.668 20.7274 4.117 19.0874 5.962 18.0954C6.435 17.8414 7.023 17.9474 7.367 18.3604L9.316 20.6984C9.672 21.1254 10.328 21.1254 10.684 20.6984L12.628 18.3654C12.972 17.9524 13.561 17.8464 14.034 18.1014ZM18.656 2.65038L12.192 0.36938C10.804 -0.12162 9.276 -0.12262 7.889 0.36338L1.346 2.65338C0.528 2.93938 0 3.68338 0 4.54938C0 5.41638 0.529 6.16038 1.347 6.44538L7.854 8.71538C8.543 8.95538 9.268 9.07638 9.992 9.07638C10.716 9.07638 11.44 8.95538 12.129 8.71538L17.993 6.67038V11.0494C17.993 11.6014 18.441 12.0494 18.993 12.0494C19.545 12.0494 19.993 11.6014 19.993 11.0494C19.993 11.0494 19.997 4.55638 19.997 4.54738C19.998 3.68238 19.472 2.93738 18.657 2.64938L18.656 2.65038ZM15.992 9.48638L12.787 10.6044C10.989 11.2314 8.994 11.2314 7.195 10.6044L3.992 9.48638V10.0494C3.992 13.3584 6.683 16.0494 9.992 16.0494C13.301 16.0494 15.992 13.3584 15.992 10.0494V9.48538V9.48638Z" fill="#DDECFF"/>
</svg>
