<svg width="24" height="24" viewBox="0 0 24 24" fill="none" xmlns="http://www.w3.org/2000/svg">
<g clip-path="url(#clip0_41_5148)">
<path d="M9.49298 20.25L6.09198 23.546C5.15998 24.457 3.58798 23.92 3.40898 22.629L3.19098 21.061L1.42598 20.879C0.081979 20.74 -0.485021 19.094 0.486979 18.156L2.79298 15.933C3.29298 17.321 4.44298 18.419 5.86898 18.827C6.60398 19.038 7.37398 19.074 8.09998 18.932C8.45998 19.466 8.93998 19.895 9.49298 20.25ZM23.512 18.156L21.206 15.933C20.706 17.321 19.556 18.419 18.13 18.827C17.395 19.038 16.625 19.074 15.899 18.932C15.539 19.466 15.059 19.895 14.506 20.25L17.907 23.546C18.839 24.457 20.411 23.92 20.59 22.629L20.808 21.061L22.573 20.879C23.917 20.74 24.484 19.094 23.512 18.156ZM14.271 17.769C14.038 18.13 13.707 18.448 13.277 18.687C12.495 19.12 11.506 19.12 10.724 18.687C10.293 18.448 9.96298 18.13 9.72998 17.769C9.31398 17.125 8.54898 16.782 7.80098 16.952C7.37298 17.049 6.90498 17.043 6.42098 16.904C5.56198 16.658 4.86198 15.958 4.61598 15.099C4.47698 14.615 4.47098 14.146 4.56798 13.717C4.73798 12.969 4.39498 12.204 3.75098 11.789C3.38898 11.556 3.07198 11.225 2.83298 10.794C2.61398 10.4 2.50798 9.95202 2.50998 9.50502C2.50798 9.05802 2.61498 8.61102 2.83298 8.21602C3.07198 7.78502 3.38998 7.45502 3.75098 7.22102C4.39498 6.80502 4.73798 6.04002 4.56798 5.29302C4.47098 4.86402 4.47698 4.39602 4.61598 3.91202C4.86198 3.05302 5.56198 2.35302 6.42098 2.10702C6.90498 1.96802 7.37298 1.96202 7.80098 2.05902C8.54898 2.22902 9.31398 1.88702 9.72998 1.24202C9.96298 0.881018 10.293 0.563018 10.724 0.324018C11.506 -0.108982 12.496 -0.108982 13.277 0.324018C13.708 0.563018 14.038 0.881018 14.271 1.24202C14.687 1.88602 15.452 2.22902 16.2 2.05902C16.628 1.96202 17.096 1.96802 17.58 2.10702C18.439 2.35302 19.139 3.05302 19.385 3.91202C19.524 4.39602 19.53 4.86502 19.433 5.29302C19.263 6.04102 19.606 6.80602 20.25 7.22102C20.612 7.45402 20.929 7.78502 21.168 8.21602C21.387 8.61002 21.493 9.05802 21.491 9.50502C21.493 9.95202 21.386 10.399 21.168 10.794C20.929 11.225 20.611 11.555 20.25 11.789C19.606 12.205 19.263 12.97 19.433 13.717C19.53 14.146 19.524 14.614 19.385 15.099C19.139 15.958 18.439 16.658 17.58 16.904C17.096 17.043 16.628 17.049 16.2 16.952C15.452 16.782 14.687 17.124 14.271 17.769ZM13 6.44602C13 5.86002 12.65 5.33702 12.108 5.11202C11.569 4.88602 10.95 5.01002 10.535 5.42402L9.29298 6.66602C8.90198 7.05702 8.90198 7.68902 9.29298 8.08002C9.68398 8.47102 10.316 8.47102 10.707 8.08002L11 7.78702V14C11 14.553 11.447 15 12 15C12.553 15 13 14.553 13 14V6.44602Z" fill="#0052B4"/>
</g>
<defs>
<clipPath id="clip0_41_5148">
<rect width="24" height="24" fill="white"/>
</clipPath>
</defs>
</svg>
