<svg width="92" height="92" viewBox="0 0 92 92" fill="none" xmlns="http://www.w3.org/2000/svg">
<path d="M91.9997 32.5056V76.6656C91.9997 77.6822 91.5958 78.6573 90.8769 79.3761C90.158 80.095 89.183 80.4989 88.1663 80.4989C87.1497 80.4989 86.1746 80.095 85.4558 79.3761C84.7369 78.6573 84.333 77.6822 84.333 76.6656V45.0482L55.9663 58.6029C52.9754 60.3683 49.5609 61.2879 46.0878 61.2632C42.4456 61.2689 38.8695 60.2901 35.7378 58.4304L7.44783 44.9639C5.22404 43.7681 3.36076 41.999 2.05134 39.8401C0.741917 37.6813 0.0340526 35.2113 0.00119817 32.6866C-0.0316563 30.1619 0.611696 27.6744 1.8645 25.4822C3.1173 23.29 4.93391 21.473 7.12583 20.2197C7.22933 20.1584 7.34049 20.1009 7.44783 20.0472L36.033 6.40823C39.1191 4.63594 42.6216 3.71772 46.1802 3.74804C49.7389 3.77836 53.2252 4.75611 56.2807 6.58073L84.5515 20.0472C86.7822 21.2815 88.6465 23.0843 89.9547 25.2726C91.2629 27.4608 91.9685 29.9563 91.9997 32.5056ZM46.084 68.9222C41.1795 68.9331 36.3593 67.6477 32.1115 65.1962L15.333 57.1884V67.5384C15.3353 71.6306 16.6454 75.6149 19.0721 78.9099C21.4989 82.2048 24.9152 84.6379 28.8225 85.8541C34.4051 87.4569 40.1919 88.2357 45.9997 88.1656C51.8082 88.2307 57.595 87.4468 63.1768 85.8387C67.0841 84.6226 70.5004 82.1895 72.9272 78.8945C75.3539 75.5996 76.6641 71.6152 76.6663 67.5231V57.2076L59.5735 65.3726C55.4705 67.7298 50.8159 68.9573 46.084 68.9299V68.9222Z" fill="#D1D4FF"/>
</svg>
