<svg width="38" height="38" viewBox="0 0 38 38" fill="none" xmlns="http://www.w3.org/2000/svg">
<g clip-path="url(#clip0_14_71715)">
<path fill-rule="evenodd" clip-rule="evenodd" d="M30.2165 11.1736C25.9304 11.1704 23.7391 14.326 23.1992 15.599C23.2071 13.6863 21.3198 11.4301 19.1174 11.4269H12.0161V26.7457L18.6376 26.7488C21.3071 26.7488 23.2071 24.434 23.2103 22.4517C23.8199 23.7009 25.9336 26.8248 30.2213 26.8248L30.2197 26.828C34.5105 26.8248 38.0034 23.2592 38.0018 18.9668C38.0002 14.5825 34.5089 11.1768 30.2165 11.1736ZM18.0819 23.18H15.976V20.5944H18.0819H18.085C18.6978 20.5944 19.1791 21.1993 19.1791 21.888C19.1775 22.5768 18.693 23.18 18.0819 23.18ZM18.0882 17.4309H15.9824V14.8422H18.0882H18.0914C18.7041 14.8422 19.1854 15.447 19.1854 16.1358C19.1854 16.8261 18.7009 17.4309 18.0882 17.4309ZM20.8923 18.9715H20.8954C21.3768 18.9098 22.1811 18.3588 22.4645 18.0057C22.3648 18.4427 22.3553 19.7046 22.4724 20.1432C22.1463 19.6444 21.3815 19.0317 20.8923 18.9715ZM30.2229 22.8697C28.0695 22.8697 26.3231 21.1248 26.3231 18.9699C26.3231 16.8166 28.0695 15.0702 30.2229 15.0702C32.3762 15.0702 34.1226 16.8166 34.1226 18.9699C34.1226 21.1248 32.3762 22.8697 30.2229 22.8697Z" fill="white"/>
<path d="M30.2226 22.0368C31.9155 22.0368 33.2879 20.6644 33.2879 18.9715C33.2879 17.2786 31.9155 15.9062 30.2226 15.9062C28.5296 15.9062 27.1572 17.2786 27.1572 18.9715C27.1572 20.6644 28.5296 22.0368 30.2226 22.0368Z" fill="white"/>
<path fill-rule="evenodd" clip-rule="evenodd" d="M11.1498 26.7536H6.98725V20.8098H4.28767V26.7552H0.0158333L0 11.4333H4.28767V17.1333H6.98883V11.4333H11.1514V26.7552L11.1498 26.7536Z" fill="white"/>
<path fill-rule="evenodd" clip-rule="evenodd" d="M37.1495 12.4941C37.1875 12.4941 37.2176 12.4862 37.2382 12.4688C37.2604 12.4513 37.2715 12.4292 37.2715 12.3991V12.3959C37.2715 12.3643 37.262 12.3405 37.2398 12.3247C37.2176 12.3088 37.1891 12.3009 37.1527 12.3009H37.0023V12.4941H37.1543H37.1495ZM36.8804 12.1964H37.1527C37.2319 12.1964 37.2936 12.2202 37.338 12.2645C37.3712 12.2962 37.3886 12.3389 37.3886 12.3928V12.3975C37.3886 12.4482 37.376 12.4878 37.349 12.5178C37.3221 12.5495 37.2889 12.5717 37.2461 12.5828L37.4108 12.8123H37.2715L37.1242 12.6033H36.9975V12.8139H36.882V12.1964H36.8804ZM37.1147 13.0451C37.3063 13.0451 37.49 12.9406 37.5802 12.7696C37.5881 12.7553 37.5945 12.7411 37.6008 12.7253C37.6546 12.5938 37.653 12.4466 37.604 12.3136C37.5327 12.1268 37.3443 12.0033 37.148 11.9953C37.14 11.9953 37.1321 11.9953 37.1242 11.9953C37.0514 11.9953 36.9817 12.0096 36.9184 12.0397C36.7379 12.122 36.616 12.2946 36.6033 12.4941C36.5938 12.6429 36.646 12.7933 36.7505 12.901C36.8471 12.9992 36.977 13.0451 37.1147 13.0451ZM37.1147 13.11C36.9548 13.11 36.8107 13.0514 36.6951 12.939C36.6429 12.8852 36.6065 12.8203 36.5764 12.749C36.5162 12.6065 36.5162 12.4355 36.5764 12.2946C36.635 12.1553 36.749 12.0444 36.8867 11.9843C37.0308 11.9209 37.2002 11.9257 37.3459 11.9843C37.4852 12.0413 37.5945 12.16 37.6546 12.2962C37.7164 12.4355 37.7148 12.6097 37.6546 12.7506C37.5755 12.9327 37.4124 13.0657 37.216 13.1005C37.1828 13.1068 37.1495 13.11 37.1147 13.11Z" fill="white"/>
</g>
<defs>
<clipPath id="clip0_14_71715">
<rect width="38" height="38" fill="white"/>
</clipPath>
</defs>
</svg>
