<svg width="24" height="24" viewBox="0 0 24 24" fill="none" xmlns="http://www.w3.org/2000/svg">
<g clip-path="url(#clip0_7_70876)">
<path d="M22 5.72362V1.99962C22 1.44762 21.553 0.999617 21 0.999617C20.447 0.999617 20 1.44762 20 1.99962V4.36562L14.797 0.854617C13.098 -0.291383 10.902 -0.291383 9.203 0.854617L2.203 5.57862C0.824 6.50962 0 8.05862 0 9.72362V18.9996C0 21.7566 2.243 23.9996 5 23.9996H7C7.553 23.9996 8 23.5516 8 22.9996V13.9996C8 13.4486 8.448 12.9996 9 12.9996H15C15.552 12.9996 16 13.4486 16 13.9996V22.9996C16 23.5516 16.447 23.9996 17 23.9996H19C21.757 23.9996 24 21.7566 24 18.9996V9.72362C24 8.14262 23.256 6.66562 22 5.72362Z" fill="#353232"/>
</g>
<defs>
<clipPath id="clip0_7_70876">
<rect width="24" height="24" fill="white"/>
</clipPath>
</defs>
</svg>
