<svg width="24" height="24" viewBox="0 0 24 24" fill="none" xmlns="http://www.w3.org/2000/svg">
<g clip-path="url(#clip0_20_71098)">
<path d="M9.49304 20.25L6.09204 23.546C5.16004 24.457 3.58804 23.92 3.40904 22.629L3.19104 21.061L1.42604 20.879C0.0820401 20.74 -0.48496 19.094 0.48704 18.156L2.79304 15.933C3.29304 17.321 4.44304 18.419 5.86904 18.827C6.60404 19.038 7.37404 19.074 8.10004 18.932C8.46004 19.466 8.94004 19.895 9.49304 20.25ZM23.512 18.156L21.206 15.933C20.706 17.321 19.556 18.419 18.13 18.827C17.395 19.038 16.625 19.074 15.899 18.932C15.539 19.466 15.059 19.895 14.506 20.25L17.907 23.546C18.839 24.457 20.411 23.92 20.59 22.629L20.808 21.061L22.573 20.879C23.917 20.74 24.484 19.094 23.512 18.156ZM14.271 17.769C14.038 18.13 13.707 18.448 13.277 18.687C12.495 19.12 11.506 19.12 10.724 18.687C10.293 18.448 9.96304 18.13 9.73004 17.769C9.31404 17.125 8.54904 16.782 7.80104 16.952C7.37304 17.049 6.90504 17.043 6.42104 16.904C5.56204 16.658 4.86204 15.958 4.61604 15.099C4.47704 14.615 4.47104 14.146 4.56804 13.717C4.73804 12.969 4.39504 12.204 3.75104 11.789C3.38904 11.556 3.07204 11.225 2.83304 10.794C2.61404 10.4 2.50804 9.95202 2.51004 9.50502C2.50804 9.05802 2.61504 8.61102 2.83304 8.21602C3.07204 7.78502 3.39004 7.45502 3.75104 7.22102C4.39504 6.80502 4.73804 6.04002 4.56804 5.29302C4.47104 4.86402 4.47704 4.39602 4.61604 3.91202C4.86204 3.05302 5.56204 2.35302 6.42104 2.10702C6.90504 1.96802 7.37304 1.96202 7.80104 2.05902C8.54904 2.22902 9.31404 1.88702 9.73004 1.24202C9.96304 0.881018 10.293 0.563018 10.724 0.324018C11.506 -0.108982 12.496 -0.108982 13.277 0.324018C13.708 0.563018 14.038 0.881018 14.271 1.24202C14.687 1.88602 15.452 2.22902 16.2 2.05902C16.628 1.96202 17.096 1.96802 17.58 2.10702C18.439 2.35302 19.139 3.05302 19.385 3.91202C19.524 4.39602 19.53 4.86502 19.433 5.29302C19.263 6.04102 19.606 6.80602 20.25 7.22102C20.612 7.45402 20.929 7.78502 21.168 8.21602C21.387 8.61002 21.493 9.05802 21.491 9.50502C21.493 9.95202 21.386 10.399 21.168 10.794C20.929 11.225 20.611 11.555 20.25 11.789C19.606 12.205 19.263 12.97 19.433 13.717C19.53 14.146 19.524 14.614 19.385 15.099C19.139 15.958 18.439 16.658 17.58 16.904C17.096 17.043 16.628 17.049 16.2 16.952C15.452 16.782 14.687 17.124 14.271 17.769ZM13 6.44602C13 5.86002 12.65 5.33702 12.108 5.11202C11.569 4.88602 10.95 5.01002 10.535 5.42402L9.29304 6.66602C8.90204 7.05702 8.90204 7.68902 9.29304 8.08002C9.68404 8.47102 10.316 8.47102 10.707 8.08002L11 7.78702V14C11 14.553 11.447 15 12 15C12.553 15 13 14.553 13 14V6.44602Z" fill="white"/>
</g>
<defs>
<clipPath id="clip0_20_71098">
<rect width="24" height="24" fill="white"/>
</clipPath>
</defs>
</svg>
