<svg width="35" height="35" viewBox="0 0 35 35" fill="none" xmlns="http://www.w3.org/2000/svg">
<g clip-path="url(#clip0_14_71717)">
<path fill-rule="evenodd" clip-rule="evenodd" d="M22.9994 3.5C20.1717 3.5 17.6502 7.26833 15.9994 13.1585C14.35 7.26833 11.8271 3.5 9.00083 3.5C4.03083 3.5 0 16.0358 0 31.5H4.00021C4.00021 17.1413 6.23875 5.50083 8.99938 5.50083C11.76 5.50083 14 16.2458 14 29.4992H18.0002C18.0002 16.2458 20.2388 5.50083 22.9994 5.50083C25.76 5.50083 28 17.1413 28 31.4985H31.9988C32.0002 16.0358 27.9708 3.5 22.9994 3.5Z" fill="white"/>
<path fill-rule="evenodd" clip-rule="evenodd" d="M34.0126 29.4992C34.0097 29.4992 34.0068 29.4992 34.0039 29.4992C33.4584 29.4992 33.0005 29.9294 33.0005 30.4952C32.9961 31.0465 33.4395 31.4956 33.9907 31.5C33.9951 31.5 33.9995 31.5 34.0039 31.5C34.5464 31.5 35.0014 31.0698 35.0014 30.4952C35.0028 29.9469 34.5595 29.5021 34.0126 29.4992ZM34.0024 31.3527C33.5372 31.3527 33.1814 30.9838 33.1814 30.4938C33.1814 30.0154 33.5372 29.6465 34.0024 29.6465C34.4618 29.6465 34.8176 30.0154 34.8176 30.4952C34.8191 30.9838 34.4618 31.3527 34.0024 31.3527Z" fill="white"/>
<path fill-rule="evenodd" clip-rule="evenodd" d="M33.9852 30.434H33.7956V30.0621H34.0347C34.1572 30.0621 34.29 30.0854 34.29 30.24C34.29 30.4252 34.1441 30.434 33.9852 30.434ZM34.4708 30.2488C34.4708 30.0256 34.341 29.9148 34.0654 29.9148H33.6147V31.0829H33.7956V30.5813H33.9881L34.3031 31.0844H34.4985L34.1675 30.5681C34.3381 30.5477 34.4708 30.4602 34.4708 30.2488Z" fill="white"/>
</g>
<defs>
<clipPath id="clip0_14_71717">
<rect width="35" height="35" fill="white"/>
</clipPath>
</defs>
</svg>
