<svg width="57" height="46" viewBox="0 0 57 46" fill="none" xmlns="http://www.w3.org/2000/svg">
<path fill-rule="evenodd" clip-rule="evenodd" d="M2.50424 2.50424C4.10767 0.9008 6.2824 0 8.55 0H37.05C39.3176 0 41.4923 0.900801 43.0958 2.50424C44.6992 4.10767 45.6 6.2824 45.6 8.55V11.4H48.45C50.7176 11.4 52.8923 12.3008 54.4958 13.9042C56.0992 15.5077 57 17.6824 57 19.95V37.05C57 39.3176 56.0992 41.4923 54.4958 43.0958C52.8923 44.6992 50.7176 45.6 48.45 45.6H19.95C17.6824 45.6 15.5077 44.6992 13.9042 43.0958C12.3008 41.4923 11.4 39.3176 11.4 37.05V34.2H8.55C6.2824 34.2 4.10767 33.2992 2.50424 31.6958C0.900801 30.0923 0 27.9176 0 25.65V8.55C0 6.2824 0.9008 4.10767 2.50424 2.50424ZM17.1 37.05C17.1 37.8059 17.4003 38.5308 17.9347 39.0653C18.4692 39.5997 19.1941 39.9 19.95 39.9H48.45C49.2059 39.9 49.9308 39.5997 50.4652 39.0653C50.9997 38.5308 51.3 37.8059 51.3 37.05V19.95C51.3 19.1941 50.9997 18.4692 50.4652 17.9347C49.9308 17.4003 49.2059 17.1 48.45 17.1H19.95C19.1941 17.1 18.4692 17.4003 17.9347 17.9347C17.4003 18.4692 17.1 19.1941 17.1 19.95V37.05ZM39.9 11.4H19.95C17.6824 11.4 15.5077 12.3008 13.9042 13.9042C12.3008 15.5077 11.4 17.6824 11.4 19.95V28.5H8.55C7.79413 28.5 7.06922 28.1997 6.53475 27.6653C6.00027 27.1308 5.7 26.4059 5.7 25.65V8.55C5.7 7.79413 6.00027 7.06922 6.53475 6.53475C7.06922 6.00027 7.79413 5.7 8.55 5.7H37.05C37.8059 5.7 38.5308 6.00027 39.0653 6.53475C39.5997 7.06922 39.9 7.79413 39.9 8.55V11.4ZM28.1542 22.4542C29.7577 20.8508 31.9324 19.95 34.2 19.95C36.4676 19.95 38.6423 20.8508 40.2458 22.4542C41.8492 24.0577 42.75 26.2324 42.75 28.5C42.75 30.7676 41.8492 32.9423 40.2458 34.5458C38.6423 36.1492 36.4676 37.05 34.2 37.05C31.9324 37.05 29.7577 36.1492 28.1542 34.5458C26.5508 32.9423 25.65 30.7676 25.65 28.5C25.65 26.2324 26.5508 24.0577 28.1542 22.4542ZM34.2 25.65C33.4441 25.65 32.7192 25.9503 32.1847 26.4847C31.6503 27.0192 31.35 27.7441 31.35 28.5C31.35 29.2559 31.6503 29.9808 32.1847 30.5153C32.7192 31.0497 33.4441 31.35 34.2 31.35C34.9559 31.35 35.6808 31.0497 36.2153 30.5153C36.7497 29.9808 37.05 29.2559 37.05 28.5C37.05 27.7441 36.7497 27.0192 36.2153 26.4847C35.6808 25.9503 34.9559 25.65 34.2 25.65Z" fill="white"/>
</svg>
