<svg width="30" height="20" viewBox="0 0 30 20" fill="none" xmlns="http://www.w3.org/2000/svg">
<path d="M29.6144 15.9125L26.3751 18.925C25.6998 19.6 24.7492 19.9875 23.7487 19.9875C22.7481 19.9875 21.8101 19.6 21.0972 18.8875L17.8954 15.9C17.3951 15.425 17.3576 14.6375 17.8328 14.1375C18.3081 13.6375 19.096 13.6125 19.5963 14.075L22.498 16.775V6.25C22.498 4.1875 20.8095 2.5 18.7459 2.5H13.743C13.0552 2.5 12.4923 1.9375 12.4923 1.25C12.4923 0.5625 13.0552 0 13.743 0H18.7459C22.1978 0 24.9994 2.8 24.9994 6.25V16.7875L27.901 14.0875C28.4013 13.6125 29.2017 13.65 29.6645 14.15C30.1397 14.65 30.1022 15.45 29.6019 15.9125H29.6144ZM16.257 17.5H11.2541C9.19049 17.5 7.50204 15.8125 7.50204 13.75V3.2125L10.4037 5.9125C10.6413 6.1375 10.954 6.25 11.2541 6.25C11.5918 6.25 11.917 6.1125 12.1672 5.85C12.6424 5.35 12.6049 4.55 12.1046 4.0875L8.90283 1.1C7.48954 -0.3125 4.98813 -0.2875 3.62487 1.075L0.398059 4.0875C-0.102222 4.5625 -0.139743 5.35 0.335524 5.85C0.810791 6.3625 1.59873 6.3875 2.09901 5.9125L5.00064 3.2125V13.75C5.00064 17.2 7.80221 20 11.2541 20H16.257C16.9448 20 17.5077 19.4375 17.5077 18.75C17.5077 18.0625 16.9448 17.5 16.257 17.5Z" fill="#0052B4"/>
</svg>
