<svg width="39" height="39" viewBox="0 0 39 39" fill="none" xmlns="http://www.w3.org/2000/svg">
<path d="M27.625 17.875H21.125V11.375C21.125 10.944 20.9538 10.5307 20.649 10.226C20.3443 9.92121 19.931 9.75 19.5 9.75C19.069 9.75 18.6557 9.92121 18.351 10.226C18.0462 10.5307 17.875 10.944 17.875 11.375V17.875H11.375C10.944 17.875 10.5307 18.0462 10.226 18.351C9.92121 18.6557 9.75 19.069 9.75 19.5C9.75 19.931 9.92121 20.3443 10.226 20.649C10.5307 20.9538 10.944 21.125 11.375 21.125H17.875V27.625C17.875 28.056 18.0462 28.4693 18.351 28.774C18.6557 29.0788 19.069 29.25 19.5 29.25C19.931 29.25 20.3443 29.0788 20.649 28.774C20.9538 28.4693 21.125 28.056 21.125 27.625V21.125H27.625C28.056 21.125 28.4693 20.9538 28.774 20.649C29.0788 20.3443 29.25 19.931 29.25 19.5C29.25 19.069 29.0788 18.6557 28.774 18.351C28.4693 18.0462 28.056 17.875 27.625 17.875Z" fill="white"/>
</svg>
