<svg width="21" height="21" viewBox="0 0 21 21" fill="none" xmlns="http://www.w3.org/2000/svg">
<path d="M18.625 8.875H12.125V2.375C12.125 1.94402 11.9538 1.5307 11.649 1.22595C11.3443 0.921205 10.931 0.75 10.5 0.75C10.069 0.75 9.6557 0.921205 9.35095 1.22595C9.04621 1.5307 8.875 1.94402 8.875 2.375V8.875H2.375C1.94402 8.875 1.5307 9.04621 1.22595 9.35095C0.921205 9.6557 0.75 10.069 0.75 10.5C0.75 10.931 0.921205 11.3443 1.22595 11.649C1.5307 11.9538 1.94402 12.125 2.375 12.125H8.875V18.625C8.875 19.056 9.04621 19.4693 9.35095 19.774C9.6557 20.0788 10.069 20.25 10.5 20.25C10.931 20.25 11.3443 20.0788 11.649 19.774C11.9538 19.4693 12.125 19.056 12.125 18.625V12.125H18.625C19.056 12.125 19.4693 11.9538 19.774 11.649C20.0788 11.3443 20.25 10.931 20.25 10.5C20.25 10.069 20.0788 9.6557 19.774 9.35095C19.4693 9.04621 19.056 8.875 18.625 8.875Z" fill="#0052B4"/>
</svg>
