<svg width="85" height="85" viewBox="0 0 85 85" fill="none" xmlns="http://www.w3.org/2000/svg">
<g clip-path="url(#clip0_8_72094)">
<path d="M67.2917 0H17.7083C7.93333 0 0 7.93333 0 17.7083V67.2917C0 77.0667 7.93333 85 17.7083 85H67.2917C77.0667 85 85 77.0667 85 67.2917V17.7083C85 7.93333 77.0667 0 67.2917 0ZM21.25 17.7083H42.5C44.4479 17.7083 46.0417 19.3021 46.0417 21.25C46.0417 23.1979 44.4479 24.7917 42.5 24.7917H21.25C19.3021 24.7917 17.7083 23.1979 17.7083 21.25C17.7083 19.3021 19.3021 17.7083 21.25 17.7083ZM21.25 31.875H53.125C55.0729 31.875 56.6667 33.4688 56.6667 35.4167C56.6667 37.3646 55.0729 38.9583 53.125 38.9583H21.25C19.3021 38.9583 17.7083 37.3646 17.7083 35.4167C17.7083 33.4688 19.3021 31.875 21.25 31.875ZM31.875 67.2917H21.25C19.3021 67.2917 17.7083 65.6979 17.7083 63.75C17.7083 61.8021 19.3021 60.2083 21.25 60.2083H31.875C33.8229 60.2083 35.4167 61.8021 35.4167 63.75C35.4167 65.6979 33.8229 67.2917 31.875 67.2917ZM63.75 53.125H21.25C19.3021 53.125 17.7083 51.5313 17.7083 49.5833C17.7083 47.6354 19.3021 46.0417 21.25 46.0417H63.75C65.6979 46.0417 67.2917 47.6354 67.2917 49.5833C67.2917 51.5313 65.6979 53.125 63.75 53.125Z" fill="#D1D4FF"/>
</g>
<defs>
<clipPath id="clip0_8_72094">
<rect width="85" height="85" fill="white"/>
</clipPath>
</defs>
</svg>
