<svg width="54" height="54" viewBox="0 0 54 54" fill="none" xmlns="http://www.w3.org/2000/svg">
<g clip-path="url(#clip0_44_5676)">
<path d="M15.75 22.5H6.75C3.02175 22.5 0 25.5217 0 29.25V47.25C0 50.9782 3.02175 54 6.75 54H15.75C19.4783 54 22.5 50.9782 22.5 47.25V29.25C22.5 25.5217 19.4783 22.5 15.75 22.5ZM7.875 47.25H6.75C5.508 47.25 4.5 46.242 4.5 45C4.5 43.758 5.508 42.75 6.75 42.75H7.875C9.117 42.75 10.125 43.758 10.125 45C10.125 46.242 9.117 47.25 7.875 47.25ZM7.875 40.5H6.75C5.508 40.5 4.5 39.492 4.5 38.25C4.5 37.008 5.508 36 6.75 36H7.875C9.117 36 10.125 37.008 10.125 38.25C10.125 39.492 9.117 40.5 7.875 40.5ZM15.75 47.25H14.625C13.383 47.25 12.375 46.242 12.375 45C12.375 43.758 13.383 42.75 14.625 42.75H15.75C16.992 42.75 18 43.758 18 45C18 46.242 16.992 47.25 15.75 47.25ZM15.75 40.5H14.625C13.383 40.5 12.375 39.492 12.375 38.25C12.375 37.008 13.383 36 14.625 36H15.75C16.992 36 18 37.008 18 38.25C18 39.492 16.992 40.5 15.75 40.5ZM15.75 33.75H6.75C5.508 33.75 4.5 32.742 4.5 31.5C4.5 30.258 5.508 29.25 6.75 29.25H15.75C16.992 29.25 18 30.258 18 31.5C18 32.742 16.992 33.75 15.75 33.75ZM54 6.75C54 7.992 52.992 9 51.75 9H24.75C23.508 9 22.5 7.992 22.5 6.75V5.625C22.5 3.546 21.87 1.611 20.79 0H47.25C50.9782 0 54 3.02175 54 6.75ZM47.25 13.5V45C47.25 49.9702 43.2202 54 38.25 54H24.7432C26.1585 52.119 27 49.7812 27 47.25V29.25C27 23.0467 21.9533 18 15.75 18H6.75V5.94675C6.75 3.00375 8.86725 0.32175 11.7945 0.02925C15.1605 -0.30825 18 2.3265 18 5.625V6.75C18 10.4782 21.0217 13.5 24.75 13.5H47.25Z" fill="#FFFCF6"/>
</g>
<defs>
<clipPath id="clip0_44_5676">
<rect width="54" height="54" fill="white"/>
</clipPath>
</defs>
</svg>
