<svg width="54" height="54" viewBox="0 0 54 54" fill="none" xmlns="http://www.w3.org/2000/svg">
<g clip-path="url(#clip0_44_5677)">
<path d="M27 29.25C27 32.9782 20.9565 36 13.5 36C6.0435 36 0 32.9782 0 29.25C0 25.5217 6.0435 22.5 13.5 22.5C20.9565 22.5 27 25.5217 27 29.25ZM27 41.625V46.125C27 50.6138 21.1973 54 13.5 54C5.80275 54 0 50.6138 0 46.125V41.625C0 46.0597 5.625 49.5 13.5 49.5C21.375 49.5 27 46.0597 27 41.625ZM27 32.625V37.125C27 41.6138 21.1973 45 13.5 45C5.80275 45 0 41.6138 0 37.125V32.625C0 37.0597 5.625 40.5 13.5 40.5C21.375 40.5 27 37.0597 27 32.625ZM40.5 13.5H22.5V18H40.5V13.5ZM42.75 0H20.25C14.0468 0 9 5.04675 9 11.25V18.3127C10.4242 18.108 11.9295 18 13.5 18C15.0705 18 16.5758 18.108 18 18.3127V13.5C18 11.0182 20.0182 9 22.5 9H40.5C42.9818 9 45 11.0182 45 13.5V18C45 20.4818 42.9818 22.5 40.5 22.5H28.1947C29.6685 23.7915 30.6968 25.3125 31.1828 27H33.7477C34.992 27 35.9977 28.008 35.9977 29.25V31.5C35.9977 32.742 34.992 33.75 33.7477 33.75H31.4977V38.25H42.7477C43.992 38.25 44.9977 39.258 44.9977 40.5C44.9977 41.742 43.992 42.75 42.7477 42.75H31.4977V46.125C31.4977 49.1963 30.1095 51.9053 27.702 54H42.7477C48.951 54 53.9977 48.9533 53.9977 42.75V11.25C53.9977 5.04675 48.9533 0 42.75 0ZM45 31.5C45 32.742 43.9943 33.75 42.75 33.75C41.5057 33.75 40.5 32.742 40.5 31.5V29.25C40.5 28.008 41.5057 27 42.75 27C43.9943 27 45 28.008 45 29.25V31.5Z" fill="white"/>
</g>
<defs>
<clipPath id="clip0_44_5677">
<rect width="54" height="54" fill="white"/>
</clipPath>
</defs>
</svg>
