<svg width="273" height="278" viewBox="0 0 273 278" fill="none" xmlns="http://www.w3.org/2000/svg">
<path d="M45.5 81.0833V69.4999C45.5 63.3557 47.8969 57.4632 52.1633 53.1186C56.4298 48.774 62.2163 46.3333 68.25 46.3333H91M45.5 196.917V208.5C45.5 214.644 47.8969 220.537 52.1633 224.881C56.4298 229.226 62.2163 231.667 68.25 231.667H91M182 46.3333H204.75C210.784 46.3333 216.57 48.774 220.837 53.1186C225.103 57.4632 227.5 63.3557 227.5 69.4999V81.0833M182 231.667H204.75C210.784 231.667 216.57 229.226 220.837 224.881C225.103 220.537 227.5 214.644 227.5 208.5V196.917M56.875 139H216.125" stroke="black" stroke-width="2" stroke-linecap="round" stroke-linejoin="round"/>
</svg>
