<svg width="32" height="32" viewBox="0 0 32 32" fill="none" xmlns="http://www.w3.org/2000/svg">
<g clip-path="url(#clip0_14_71716)">
<path d="M16 0C7.164 0 0 7.164 0 16C0 24.8373 7.164 32 16 32C24.8373 32 32 24.8373 32 16C32 7.164 24.8373 0 16 0ZM23.3373 23.0773C23.0493 23.5493 22.436 23.696 21.9667 23.4093C18.2093 21.1133 13.48 20.5947 7.91067 21.8667C7.37333 21.9893 6.83867 21.6533 6.716 21.1173C6.59333 20.5813 6.928 20.0453 7.46667 19.924C13.5613 18.5307 18.7893 19.1307 23.0067 21.708C23.4773 21.9933 23.6253 22.608 23.3373 23.0773ZM25.296 18.7213C24.9347 19.308 24.1667 19.492 23.58 19.132C19.28 16.4893 12.724 15.7227 7.636 17.268C6.97733 17.4667 6.28 17.0947 6.08 16.436C5.88133 15.776 6.25333 15.0813 6.912 14.88C12.7227 13.116 19.9467 13.9707 24.8853 17.0053C25.472 17.3667 25.656 18.1347 25.296 18.7213ZM25.464 14.184C20.3067 11.1213 11.8 10.84 6.876 12.3347C6.08533 12.5747 5.24933 12.128 5.00933 11.3373C4.76933 10.5467 5.216 9.71067 6.00667 9.47067C11.6587 7.75467 21.0533 8.08667 26.9907 11.6107C27.7013 12.0333 27.9347 12.9507 27.5133 13.6613C27.0933 14.372 26.1733 14.6067 25.464 14.184Z" fill="white"/>
</g>
<defs>
<clipPath id="clip0_14_71716">
<rect width="32" height="32" fill="white"/>
</clipPath>
</defs>
</svg>
