<svg width="42" height="42" viewBox="0 0 42 42" fill="none" xmlns="http://www.w3.org/2000/svg">
<path d="M33.25 0H8.75C3.92 0 0 3.92 0 8.75V33.25C0 38.08 3.92 42 8.75 42H33.25C38.08 42 42 38.08 42 33.25V8.75C42 3.92 38.08 0 33.25 0ZM30.0475 20.335L26.25 23.4325L27.825 28.21C28.035 28.8575 27.825 29.575 27.2825 29.9775C26.74 30.3975 26.005 30.415 25.4275 30.0475L21.0175 27.1775L16.6775 30.0825C16.415 30.2575 16.1 30.345 15.785 30.345C15.4525 30.345 15.1025 30.24 14.8225 30.03C14.28 29.6275 14.0525 28.91 14.2625 28.2625L15.7675 23.4325L11.9525 20.335C11.445 19.8975 11.2525 19.1975 11.48 18.5675C11.7075 17.9375 12.32 17.5175 12.985 17.5175H17.7975L19.495 12.95C19.7225 12.32 20.335 11.9 21 11.9C21.665 11.9 22.2775 12.32 22.505 12.95L24.2025 17.5175H29.015C29.68 17.5175 30.2925 17.9375 30.52 18.5675C30.7475 19.1975 30.555 19.915 30.0475 20.3525V20.335Z" fill="#DDECFF"/>
</svg>
