<svg width="24" height="24" viewBox="0 0 24 24" fill="none" xmlns="http://www.w3.org/2000/svg">
<g clip-path="url(#clip0_8_71380)">
<path d="M16.9997 8.00234H7.00122V7.00251C7.00047 4.24152 9.23808 2.00263 11.9991 2.00188C13.8183 2.00137 15.4941 2.98911 16.3748 4.58089C16.6429 5.06377 17.2517 5.23793 17.7346 4.96984C18.2175 4.70176 18.3916 4.09295 18.1235 3.61006C16.2512 0.228402 11.992 -0.99518 8.61029 0.877147C6.3827 2.11048 5.00066 4.45631 5.0015 7.00255V8.42636C3.18181 9.22053 2.00458 11.0162 2.00195 13.0017V19.0007C2.00528 21.7604 4.24158 23.9967 7.00122 24H16.9997C19.7593 23.9967 21.9956 21.7604 21.999 19.0007V13.0017C21.9956 10.2419 19.7593 8.00562 16.9997 8.00234ZM13.0003 17.001C13.0003 17.5532 12.5527 18.0008 12.0005 18.0008C11.4483 18.0008 11.0006 17.5532 11.0006 17.001V15.0013C11.0006 14.4491 11.4483 14.0014 12.0005 14.0014C12.5527 14.0014 13.0003 14.4491 13.0003 15.0013V17.001Z" fill="white"/>
</g>
<defs>
<clipPath id="clip0_8_71380">
<rect width="24" height="24" fill="white"/>
</clipPath>
</defs>
</svg>
