<svg width="27" height="21" viewBox="0 0 27 21" fill="none" xmlns="http://www.w3.org/2000/svg">
<path d="M13.4885 14.9941C15.9707 14.9941 17.9828 12.9819 17.9828 10.4997C17.9828 8.01756 15.9707 6.00537 13.4885 6.00537C11.0063 6.00537 8.99414 8.01756 8.99414 10.4997C8.99414 12.9819 11.0063 14.9941 13.4885 14.9941Z" fill="white"/>
<path d="M26.1521 7.6C24.4094 4.7618 20.4454 0 13.4881 0C6.5308 0 2.56677 4.7618 0.824076 7.6C-0.274692 9.37719 -0.274692 11.6228 0.824076 13.4C2.56677 16.2382 6.5308 21 13.4881 21C20.4454 21 24.4094 16.2382 26.1521 13.4C27.2509 11.6228 27.2509 9.37719 26.1521 7.6ZM13.4881 17.2415C9.76486 17.2415 6.74653 14.2232 6.74653 10.5C6.74653 6.77674 9.76486 3.75842 13.4881 3.75842C17.2113 3.75842 20.2296 6.77674 20.2296 10.5C20.2259 14.2217 17.2098 17.2378 13.4881 17.2415Z" fill="white"/>
</svg>
