<svg width="24" height="24" viewBox="0 0 24 24" fill="none" xmlns="http://www.w3.org/2000/svg">
<g clip-path="url(#clip0_47_6459)">
<path d="M15.288 4.20333C14.9 3.81033 14.904 3.17733 15.297 2.78933L17.501 0.612329C18.318 -0.201671 19.649 -0.202671 20.471 0.616329L22.698 2.78433C23.094 3.16933 23.102 3.80233 22.718 4.19833C22.522 4.39933 22.262 4.50033 22.001 4.50033C21.749 4.50033 21.498 4.40633 21.304 4.21633L20.001 2.94833V9.00033C20.001 9.55233 19.554 10.0003 19.001 10.0003C18.448 10.0003 18.001 9.55233 18.001 9.00033V2.93033L16.704 4.21133C16.31 4.59933 15.679 4.59633 15.289 4.20233L15.288 4.20333ZM24 11.0003V21.0003C24 22.6543 22.654 24.0003 21 24.0003H5C2.243 24.0003 0 21.7573 0 19.0003V9.00033C0 8.11333 0.232 7.27933 0.639 6.55633C0.659 6.51633 0.681 6.47733 0.706 6.44033C1.58 4.98033 3.178 4.00033 5 4.00033H12C12.553 4.00033 13 4.44833 13 5.00033C13 5.55233 12.553 6.00033 12 6.00033H5C4.113 6.00033 3.314 6.38733 2.765 7.00133C3.328 7.62833 4.141 8.00033 5 8.00033H16V9.00033C16 10.6543 17.346 12.0003 19 12.0003C20.654 12.0003 22 10.6543 22 9.00033V8.18433C23.161 8.59833 24 9.69833 24 11.0003ZM20 16.0003C20 15.1723 19.328 14.5003 18.5 14.5003C17.672 14.5003 17 15.1723 17 16.0003C17 16.8283 17.672 17.5003 18.5 17.5003C19.328 17.5003 20 16.8283 20 16.0003Z" fill="white"/>
</g>
<defs>
<clipPath id="clip0_47_6459">
<rect width="24" height="24" fill="white"/>
</clipPath>
</defs>
</svg>
